<svg width="140" height="48" viewBox="0 0 140 48" fill="none" xmlns="http://www.w3.org/2000/svg"><path d="M11.9558 31.6539C11.0906 32.3405 9.83254 32.1957 9.14592 31.3305C8.4593 30.4652 8.60409 29.2072 9.46932 28.5206L11.9558 31.6539ZM105.474 18.7303L104.803 20.6145L105.474 18.7303ZM126.125 28.4136L125.073 26.7128L126.125 28.4136ZM120.115 10.7873L118.268 11.5545C117.845 10.5355 118.327 9.36626 119.345 8.94145C120.363 8.51664 121.533 8.99675 121.96 10.0144L120.115 10.7873ZM129.345 27.6408C129.771 28.6595 129.292 29.8314 128.273 30.2583C127.254 30.6851 126.082 30.2053 125.655 29.1865L129.345 27.6408ZM9.46932 28.5206C24.9603 16.2274 46.2767 12.3275 64.9378 11.9411C83.6094 11.5546 100.059 14.6799 106.144 16.8461L104.803 20.6145C99.2814 18.6489 83.3354 15.5611 65.0206 15.9403C46.6951 16.3197 26.4343 20.1641 11.9558 31.6539L9.46932 28.5206ZM106.144 16.8461C107.308 17.2604 112.744 19.6052 117.709 21.8616C120.211 22.9985 122.644 24.1358 124.413 25.0237C125.288 25.4631 126.046 25.8634 126.575 26.1832C126.818 26.33 127.116 26.5201 127.357 26.7304C127.437 26.801 127.735 27.0579 127.936 27.4698C128.045 27.6941 128.224 28.1637 128.111 28.7593C127.983 29.432 127.561 29.8772 127.178 30.1145L125.073 26.7128C124.713 26.9355 124.305 27.3623 124.181 28.0128C124.072 28.5862 124.246 29.0298 124.341 29.2244C124.442 29.4319 124.556 29.5673 124.605 29.6222C124.662 29.6867 124.707 29.7275 124.725 29.7428C124.765 29.7777 124.723 29.7377 124.507 29.6072C124.119 29.3724 123.477 29.0297 122.619 28.5988C120.92 27.7461 118.543 26.6341 116.054 25.5032C111.039 23.2241 105.773 20.9598 104.803 20.6145L106.144 16.8461ZM127.178 30.1145C126.75 30.3791 126.187 30.5972 125.694 30.7699C125.156 30.9583 124.522 31.1524 123.856 31.3438C122.523 31.7266 120.963 32.1264 119.601 32.4774C118.197 32.8395 117.066 33.1347 116.481 33.3279C116.335 33.3763 116.287 33.3976 116.299 33.3924C116.306 33.389 116.327 33.3793 116.357 33.3629C116.385 33.3478 116.439 33.317 116.507 33.2693C116.567 33.2272 116.692 33.1345 116.825 32.985C116.943 32.8513 117.196 32.5307 117.285 32.0331C117.392 31.4379 117.217 30.8693 116.889 30.4554C116.616 30.1121 116.305 29.9536 116.17 29.8925C115.901 29.7707 115.683 29.7514 115.68 29.7511C115.616 29.7435 115.636 29.7514 115.822 29.7449L115.962 33.7425C115.739 33.7503 115.466 33.7534 115.214 33.7238C115.118 33.7125 114.832 33.6778 114.52 33.5365C114.364 33.4657 114.037 33.2965 113.755 32.9414C113.417 32.5158 113.239 31.9344 113.348 31.3255C113.44 30.8142 113.701 30.479 113.833 30.3296C113.98 30.1645 114.124 30.0552 114.209 29.9956C114.379 29.8762 114.541 29.798 114.63 29.7569C114.825 29.6677 115.041 29.5911 115.227 29.5297C115.971 29.2839 117.265 28.949 118.603 28.6041C119.984 28.2479 121.483 27.8636 122.751 27.4993C123.385 27.3172 123.936 27.147 124.372 26.9947C124.589 26.9186 124.762 26.8522 124.893 26.7963C125.035 26.7361 125.083 26.7069 125.073 26.7128L127.178 30.1145ZM115.822 29.7449C118.002 29.6688 120.139 29.1486 122.524 28.5623C124.843 27.9923 127.401 27.3588 130.104 27.2644L130.243 31.2619C128.02 31.3396 125.859 31.8617 123.479 32.4467C121.165 33.0154 118.625 33.6495 115.962 33.7425L115.822 29.7449ZM130.104 27.2644C129.905 27.2713 129.593 27.3246 129.273 27.5333C128.94 27.7496 128.736 28.043 128.628 28.3036C128.453 28.7272 128.541 29.0237 128.52 28.9054C128.491 28.7478 128.348 28.3221 127.983 27.5697C127.29 26.139 126.107 24.1513 124.763 22.0063C123.425 19.8721 121.99 17.6783 120.792 15.8124C120.199 14.8879 119.663 14.0416 119.239 13.3411C118.839 12.6807 118.466 12.0317 118.268 11.5545L121.962 10.0201C122.027 10.1769 122.242 10.5782 122.661 11.2706C123.056 11.923 123.568 12.732 124.158 13.6519C125.328 15.4747 126.8 17.7253 128.152 19.8823C129.497 22.0285 130.784 24.1788 131.582 25.8241C131.963 26.6097 132.322 27.4564 132.455 28.1921C132.515 28.5205 132.6 29.1689 132.323 29.8353C132.165 30.2173 131.886 30.605 131.454 30.8864C131.033 31.1602 130.595 31.2497 130.243 31.2619L130.104 27.2644ZM121.96 10.0144L129.345 27.6408L125.655 29.1865L118.27 11.5601L121.96 10.0144Z" fill="url(#paint0_linear_19668_2981)"></path><defs><linearGradient id="paint0_linear_19668_2981" x1="106" y1="20.5" x2="17.5" y2="50" gradientUnits="userSpaceOnUse"><stop stop-color="white"></stop><stop offset="1" stop-color="white" stop-opacity="0"></stop></linearGradient></defs></svg>